# xmcd CD database file
#
# Track frame offsets:
#	150
#	19485
#	43245
#	55855
#	73405
#	87490
#	105382
#	117940
#	135137
#	156897
#	169970
#	190825
#	207982
#	225952
#
# Disc length: 3246 seconds
#
# Revision: 0
# Processed by: cddbd v1.5.1PL0 Copyright (c) Steve Scherf et al.
# Submitted via: CDex 1.51
#
DISCID=c00cac0e
DTITLE=Mike Smith and his Cadillac Cowboys - Mike Smith and his Cadillac Cowboys
DYEAR=2000
DGENRE=Country
TTITLE0=San Antonio Rose
TTITLE1=Seven Nights to Rock
TTITLE2=Always be Calling Your Name
TTITLE3=Going Away
TTITLE4=Cherokee Maiden
TTITLE5=Coal Tattoo
TTITLE6=Old Fashioned Love
TTITLE7=C'est La Vie
TTITLE8=Blueberry Hill
TTITLE9=Six Pack To Go
TTITLE10=Beat Me Daddy Eight to the Bar
TTITLE11=Last Kiss
TTITLE12=Save the Last Dance
TTITLE13=Riders in the Sky
EXTD=YEAR: 2000
EXTT0=
EXTT1=
EXTT2=
EXTT3=
EXTT4=
EXTT5=
EXTT6=
EXTT7=
EXTT8=
EXTT9=
EXTT10=
EXTT11=
EXTT12=
EXTT13=
PLAYORDER=
